<?xml version="1.0" encoding="utf-8"?>
<!-- Generator: Adobe Illustrator 22.1.0, SVG Export Plug-In . SVG Version: 6.00 Build 0)  -->
<svg version="1.1" xmlns="http://www.w3.org/2000/svg" xmlns:xlink="http://www.w3.org/1999/xlink" x="0px" y="0px" width="400px"
	 height="300px" viewBox="0 0 400 300" style="enable-background:new 0 0 400 300;" xml:space="preserve">
<style type="text/css">
	.st0{opacity:0.2;fill:#FFFFFF;}
	.st1{opacity:8.000000e-02;fill:#FFFFFF;}
</style>
<g id="Layer_1">
</g>
<g id="Layer_2">
	<g>
		<path class="st0" d="M0,220l4.2,1.5c4.2,1.6,12.5,4.4,20.8,16.3c8.3,11.9,16.7,32.5,25,44.4c8.3,11.9,16.7,14.7,25,3
			c8.3-11.9,16.7-38.5,25-53.3c8.3-14.9,16.7-17.7,25-19.3c8.3-1.5,16.7-1.5,25,5.9c8.3,7.3,16.7,22.3,25,29.6
			c8.3,7.4,16.7,7.4,25,7.4s16.7,0,25,4.4c8.3,4.4,16.7,13.3,25,16.3c8.3,2.9,16.7,0.1,25,0c8.3,0.1,16.7,2.9,25,4.4
			c8.3,1.5,16.7,1.5,25-1.5c8.3-2.9,16.7-9,25-14.8c8.3-5.8,16.7-11.9,25-10.4c8.3,1.5,16.7,10.4,20.8,14.8l4.2,4.4V300h-4.2
			c-4.2,0-12.5,0-20.8,0s-16.7,0-25,0s-16.7,0-25,0s-16.7,0-25,0s-16.7,0-25,0s-16.7,0-25,0c-8.3,0-16.7,0-25,0s-16.7,0-25,0
			s-16.7,0-25,0s-16.7,0-25,0s-16.7,0-25,0s-16.7,0-25,0s-16.7,0-25,0s-16.7,0-25,0s-16.7,0-25,0s-16.7,0-20.8,0H0V220z"/>
		<path class="st1" d="M0,300l8.3-3c8.3-2.9,25-9,41.7-19.3s33.3-25.3,50-29.6c16.7-4.5,33.3,1.6,50,1.5c16.7,0.1,33.3-6,50-4.4
			c16.7,1.5,33.3,10.4,50,17.8c16.7,7.3,33.3,13.4,50,8.9c16.7-4.4,33.3-19.4,50-23.7c16.7-4.5,33.3,1.6,41.7,4.4l8.3,3V300h-8.3
			c-8.3,0-25,0-41.7,0s-33.3,0-50,0s-33.3,0-50,0s-33.3,0-50,0s-33.3,0-50,0s-33.3,0-50,0s-33.3,0-50,0s-33.3,0-41.7,0H0z"/>
	</g>
</g>
</svg>
