<?xml version="1.0" encoding="utf-8"?>
<!-- Generator: Adobe Illustrator 25.4.1, SVG Export Plug-In . SVG Version: 6.00 Build 0)  -->
<svg version="1.1" id="Capa_1" xmlns="http://www.w3.org/2000/svg" xmlns:xlink="http://www.w3.org/1999/xlink" x="0px" y="0px"
	 viewBox="0 0 487.6 487.6" style="enable-background:new 0 0 487.6 487.6;" xml:space="preserve">
<style type="text/css">
	.st0{fill:#FFFFFF;}
</style>
<g>
	<path class="st0" d="M460.3,216.6h-11.6v-69.7c0-28.5-23.2-51.6-51.6-51.6h-10.7l0.1-25.9c0-19.2-15.6-34.8-34.8-34.8H42.3
		c-23.1,0-42,18.6-42.3,41.7c0,0.2,0,0.4,0,0.6v341.4C0,437.5,15.6,453,34.8,453h362.4c28.5,0,51.6-23.2,51.6-51.6v-69.8h11.6
		c15,0,27.2-12.2,27.2-27.2v-60.7C487.5,228.8,475.3,216.6,460.3,216.6z M42.3,58.5h309.4c5.9,0,10.8,4.8,10.8,10.7l-0.1,26H42.3
		C32.2,95.3,24,87.1,24,76.9S32.2,58.5,42.3,58.5z M424.7,401.4c0,15.2-12.4,27.6-27.6,27.6H34.7c-5.9,0-10.8-4.8-10.8-10.8V115.1
		c5.6,2.7,11.8,4.2,18.4,4.2h354.8c15.2,0,27.6,12.4,27.6,27.6v69.7h-81.9c-15,0-27.2,12.2-27.2,27.2v60.7c0,15,12.2,27.2,27.2,27.2
		h81.9L424.7,401.4L424.7,401.4z M463.5,304.5c0,1.8-1.4,3.2-3.2,3.2H342.9c-1.8,0-3.2-1.4-3.2-3.2v-60.7c0-1.7,1.4-3.2,3.2-3.2
		h117.4c1.7,0,3.2,1.4,3.2,3.2V304.5L463.5,304.5z"/>
</g>
</svg>
