<?xml version="1.0" encoding="utf-8"?>
<!-- Generator: Adobe Illustrator 25.4.1, SVG Export Plug-In . SVG Version: 6.00 Build 0)  -->
<svg version="1.1"
	 id="Layer_1" shape-rendering="geometricPrecision" image-rendering="optimizeQuality" text-rendering="geometricPrecision" xmlns:xodm="http://www.corel.com/coreldraw/odm/2003"
	 xmlns="http://www.w3.org/2000/svg" xmlns:xlink="http://www.w3.org/1999/xlink" x="0px" y="0px" viewBox="0 0 70 70"
	 style="enable-background:new 0 0 70 70;" xml:space="preserve">
<style type="text/css">
	.st0{fill:url(#SVGID_1_);}
</style>
<linearGradient id="SVGID_1_" gradientUnits="userSpaceOnUse" x1="11.5338" y1="58.937" x2="61.0661" y2="9.4047">
	<stop  offset="0" style="stop-color:#34B56C"/>
	<stop  offset="0.2821" style="stop-color:#41B54C"/>
	<stop  offset="0.6397" style="stop-color:#42B549"/>
	<stop  offset="0.8966" style="stop-color:#4BB649"/>
	<stop  offset="0.9888" style="stop-color:#8EC63E"/>
</linearGradient>
<path class="st0" d="M53.39,1.73c0,0-19.64,2.35-32.43,22.38s-0.33,35.45,3.18,37.98l4-6.54l-6.42-3.16L26.68,45l-3.92-1.96
	l10.78-17.52l13.99-2.05L33.96,39.55l4.76,2.04l-8.03,8.51l5.09,2.18l-14.91,16c0,0,15.8-5.66,28.58-20.29
	c0,0,9.34-10.65,3.07-24.83c0,0,1.22-5.49-1.18-7.89c0,0,2.28-3.21-0.3-7.79C51.04,7.47,50.25,3.59,53.39,1.73z"/>
</svg>
