<?xml version="1.0" encoding="utf-8"?>
<!-- Generator: Adobe Illustrator 25.4.1, SVG Export Plug-In . SVG Version: 6.00 Build 0)  -->
<svg version="1.1" id="Layer_1" xmlns="http://www.w3.org/2000/svg" xmlns:xlink="http://www.w3.org/1999/xlink" x="0px" y="0px"
	 viewBox="0 0 160 65" style="enable-background:new 0 0 160 65;" xml:space="preserve">
<style type="text/css">
	.st0{fill:url(#SVGID_1_);}
	.st1{opacity:0.63;fill:url(#SVGID_00000045601474366102649860000008279728578755192728_);}
	.st2{fill:#009436;}
</style>
<g>
	<g>
		<linearGradient id="SVGID_1_" gradientUnits="userSpaceOnUse" x1="11.3579" y1="53.8349" x2="55.5058" y2="9.6871">
			<stop  offset="0" style="stop-color:#34B56C"/>
			<stop  offset="0.2821" style="stop-color:#41B54C"/>
			<stop  offset="0.6397" style="stop-color:#42B549"/>
			<stop  offset="0.8966" style="stop-color:#4BB649"/>
			<stop  offset="0.9888" style="stop-color:#8EC63E"/>
		</linearGradient>
		<path class="st0" d="M48.67,2.85c0,0-17.51,2.09-28.91,19.94s-0.29,31.6,2.83,33.85l3.56-5.83l-5.72-2.82l4.43-6.58l-3.5-1.75
			l9.61-15.61l12.47-1.83l-12.1,14.33l4.24,1.82l-7.16,7.58l4.54,1.94L19.68,62.15c0,0,14.08-5.05,25.47-18.09
			c0,0,8.33-9.49,2.74-22.13c0,0,1.09-4.89-1.05-7.03c0,0,2.04-2.86-0.27-6.95C46.57,7.96,45.87,4.5,48.67,2.85z"/>
		
			<linearGradient id="SVGID_00000000201977040834980260000000454762602427299719_" gradientUnits="userSpaceOnUse" x1="48.3715" y1="20.0481" x2="18.9833" y2="62.8837">
			<stop  offset="0" style="stop-color:#14552B"/>
			<stop  offset="0.3492" style="stop-color:#0C8543"/>
			<stop  offset="0.7458" style="stop-color:#009B51"/>
			<stop  offset="0.9948" style="stop-color:#3FB55D"/>
		</linearGradient>
		<polygon style="opacity:0.63;fill:url(#SVGID_00000000201977040834980260000000454762602427299719_);" points="42.21,23.67 
			31.34,36.55 35.59,38.37 28.42,45.95 32.96,47.89 26.21,55.14 33.49,50.07 31.83,49.11 32.96,47.89 28.81,46.11 36.52,39.89 
			34.85,39.14 35.59,38.37 32.45,37.03 46.83,23.15 		"/>
	</g>
	<g>
		<path class="st2" d="M69.98,29.3h-4.8l-1.11-3.52h-5.86l-1.08,3.52h-4.65l6.37-17.89h4.73L69.98,29.3z M63.01,22.4l-1.91-6
			l-1.86,6H63.01z"/>
		<path class="st2" d="M83.68,29.3H71.67V11.4h4.63v14.28h7.38V29.3z"/>
		<path class="st2" d="M97.62,29.3H85.61V11.4h4.63v14.28h7.38V29.3z"/>
		<path class="st2" d="M112.74,23.2c0,1.22-0.2,2.24-0.6,3.06c-0.4,0.82-0.93,1.48-1.59,1.99c-0.66,0.51-1.41,0.87-2.25,1.08
			c-0.84,0.22-1.71,0.33-2.59,0.33c-0.9,0-1.78-0.12-2.64-0.35c-0.86-0.23-1.62-0.61-2.28-1.13c-0.66-0.52-1.19-1.21-1.59-2.05
			c-0.4-0.84-0.6-1.88-0.6-3.1V11.4h4.63v11.65c0,0.93,0.21,1.67,0.64,2.22c0.43,0.55,1.06,0.82,1.89,0.82
			c0.9,0,1.55-0.25,1.95-0.76c0.4-0.51,0.6-1.22,0.6-2.13V11.4h4.44V23.2z"/>
		<path class="st2" d="M130.53,29.3h-5.04l-3.06-7.07h-1.78v7.07h-4.63V11.4h7.35c2.15,0,3.77,0.45,4.86,1.36
			c1.08,0.91,1.63,2.21,1.63,3.9c0,1.25-0.26,2.29-0.77,3.12c-0.51,0.83-1.26,1.43-2.24,1.8L130.53,29.3z M123.18,18.85
			c0.72,0,1.24-0.19,1.55-0.58c0.31-0.39,0.47-0.86,0.47-1.42c0-0.56-0.17-1.03-0.51-1.41c-0.34-0.38-0.89-0.57-1.66-0.57h-2.39
			v3.98H123.18z"/>
		<path class="st2" d="M145.27,29.3H132.8V11.4h12.15v3.38h-7.52v3.35h6.34v3.38h-6.34v4.32h7.84V29.3z"/>
		<path class="st2" d="M52.84,53.82V35.93h9.45v0.75h-8.61v7.28h7.52v0.75h-7.52v8.37h8.94v0.75H52.84z"/>
		<path class="st2" d="M76.39,53.82l-9.43-16.51v16.51h-0.84V35.93h1.04l9.45,16.54V35.93h0.84v17.89H76.39z"/>
		<path class="st2" d="M82.04,53.82V35.93h9.45v0.75h-8.61v7.28h7.52v0.75h-7.52v8.37h8.94v0.75H82.04z"/>
		<path class="st2" d="M105.48,53.82l-4-8.61h-5.3v8.61h-0.84V35.93h5.06c3.79,0,5.5,1.9,5.5,4.34c0,2.48-1.4,4.29-3.54,4.85
			l4.05,8.7H105.48z M100.22,36.68h-4.05v7.79h4.94c2.75,0,3.93-2.29,3.93-4.17C105.04,38.13,103.26,36.68,100.22,36.68z"/>
		<path class="st2" d="M121.17,53.82l-0.22-2.36c-1.37,2.17-3.25,2.7-4.92,2.7c-4.44,0-7.06-3.79-7.06-9.14
			c0-5.76,2.75-9.43,7.11-9.43c2.19,0,3.83,0.87,5.04,2.56l-0.72,0.51c-1.18-1.57-2.53-2.24-4.34-2.24c-3.69,0-6.2,3.11-6.2,8.49
			c0,5.3,2.58,8.44,6.2,8.44c2.92,0,4.89-2.27,4.89-4.8v-2.96h-4.92v-0.75h5.76v8.99H121.17z"/>
		<path class="st2" d="M131.06,46.04v7.79h-0.82v-7.67l-5.91-10.22h0.96l5.33,9.31l5.28-9.31h0.92L131.06,46.04z"/>
	</g>
</g>
</svg>
