<svg xmlns="http://www.w3.org/2000/svg" width="276.164" height="144.706" viewBox="1389.836 219.648 276.164 144.706"><g data-name="Group 3060"><g data-name="Group 3054"><path d="m1466.644 274.605-18.9 3.745" stroke-linejoin="round" stroke-linecap="round" stroke-width="2" stroke="#f7931e" fill="transparent" data-name="Path 11733"/><path d="m1437.829 283.77-32.852-24.59 42.24 18.96" stroke-linejoin="round" stroke-linecap="round" stroke-width="2" stroke="#f7931e" fill="transparent" data-name="Path 11734"/><path d="M1467.327 272.695a2033.798 2033.798 0 0 0-75.9-21.8" stroke-linejoin="round" stroke-linecap="round" stroke-width="2" stroke="#f7931e" fill="transparent" data-name="Path 11735"/><path d="M1416.437 284.44a307.638 307.638 0 0 1 11.36-.21 307.295 307.295 0 0 1 10.067.165" stroke-linejoin="round" stroke-linecap="round" stroke-width="2" stroke="#f7931e" fill="transparent" data-name="Path 11736"/><path d="M1418.765 286.349a398.649 398.649 0 0 1-28.93-35.311" stroke-linejoin="round" stroke-linecap="round" stroke-width="2" stroke="#f7931e" fill="transparent" data-name="Path 11737"/><path d="M1448.393 299.332c-.03-1.272-.045-2.543-.045-3.814a163.497 163.497 0 0 1 .77-15.843" stroke-linejoin="round" stroke-linecap="round" stroke-width="2" stroke="#f7931e" fill="transparent" data-name="Path 11738"/><path d="m1438.74 283.86 8.918 15.775" stroke-linejoin="round" stroke-linecap="round" stroke-width="2" stroke="#f7931e" fill="transparent" data-name="Path 11739"/><path d="M1447.244 299.57a268.025 268.025 0 0 0-17.732-15.307" stroke-linejoin="round" stroke-linecap="round" stroke-width="2" stroke="#f7931e" fill="transparent" data-name="Path 11740"/></g><path d="M1655.82 219.648a32.79 32.79 0 0 1 5.717 6.518c9.743 14.802 2.99 33.79-14.964 45.343a81.972 81.972 0 0 1-19.044 8.802c-12.543 4.07-26.817 6.016-41.092 5.987a153.572 153.572 0 0 1-21.205-1.506c-2.846-.404-5.727-.901-8.4-1.648a25.374 25.374 0 0 1-6.23-2.552 12.947 12.947 0 0 1-1.304-.895c-3.085-2.413-4.465-5.875-2.267-8.63a6.53 6.53 0 0 1 .834-.863c2.328-2.017 6.438-3.05 10.397-3.05a22.572 22.572 0 0 1 .618.009 41.459 41.459 0 0 1 13.12 2.956c18.259 6.7 33.65 17.944 36.908 31.425a25.198 25.198 0 0 1 .689 5.939c0 3.995-.863 8.003-2.2 11.91-4.707 13.762-15.726 26.886-32.907 35.462a81.233 81.233 0 0 1-7.932 3.43c-10.41 3.875-22.357 6.068-34.218 6.068a87.01 87.01 0 0 1-19.123-2.051c-25.602-5.791-41.984-23.147-45.312-40.66a94.955 94.955 0 0 1-1.09-8.54c-.821-8.464-1.643-16.958-8.935-23.775" stroke-linejoin="round" stroke-linecap="round" stroke-width="2" stroke="#f7931e" fill="transparent" data-name="Path 12168"/></g></svg>