<svg xmlns="http://www.w3.org/2000/svg" width="61.903" height="63.473" viewBox="-1300.974 625.172 61.903 63.473"><g data-name="Group 3015"><path d="M-1247.523 639.006a277.177 277.177 0 0 1-.597 1.724c-4.79 13.672-9.58 23.153-22.395 20.642a28.656 28.656 0 0 1-2.608-.645c-4.238-1.253-7.303-3.15-9.538-5.422a21.334 21.334 0 0 1-5.429-10.949 22.794 22.794 0 0 1-.371-2.607 22.785 22.785 0 0 1 5.276-16.577" stroke-linejoin="round" stroke-linecap="round" stroke-width="1.5" stroke="#f7931e" fill="transparent" data-name="Path 11664"/><path d="M-1287.86 646.569a19.302 19.302 0 0 1-1.028.027 19.3 19.3 0 0 1-8.932-2.191 5.022 5.022 0 0 1-2.217-2.076c-1.772-3.103-.679-8.017.407-10.191a6.51 6.51 0 0 1 .122-.233 9.67 9.67 0 0 1 2.448-3.065 6.623 6.623 0 0 1 4.252-1.421c1.413 0 3.046.332 5.035.954a51 51 0 0 1 2.113.717" stroke-linejoin="round" stroke-linecap="round" stroke-width="1.5" stroke="#f7931e" fill="transparent" data-name="Path 11665"/><path d="M-1269.13 662.184a1.962 1.962 0 0 1 .71 1.586c0 .104-.005.207-.018.311a2.885 2.885 0 0 1-1.008 1.881 5.6 5.6 0 0 1-3.1.936c-.353 0-.707-.033-1.059-.101a15.318 15.318 0 0 1-6.681-2.411 2.2 2.2 0 0 1-.835-.815 1.983 1.983 0 0 1-.148-.75c0-.089.006-.177.018-.265a6.109 6.109 0 0 1 1.771-3.839" stroke-linejoin="round" stroke-linecap="round" stroke-width="1.5" stroke="#f7931e" fill="transparent" data-name="Path 11666"/><path d="M-1278.786 665.43a30.469 30.469 0 0 1-2.995 7.972 12.078 12.078 0 0 1-5.455 5.071 2.906 2.906 0 0 1-1.432.377h-.014a2.905 2.905 0 0 1-1.338-.333" stroke-linejoin="round" stroke-linecap="round" stroke-width="1.5" stroke="#f7931e" fill="transparent" data-name="Path 11667"/><path d="M-1273.023 683.947a1.688 1.688 0 0 1-.17.009 1.685 1.685 0 0 1-1.366-.7 4.342 4.342 0 0 1-.7-1.611 25.691 25.691 0 0 1-.617-5.033 25.694 25.694 0 0 1-.007-.594 25.693 25.693 0 0 1 1.69-9.164" stroke-linejoin="round" stroke-linecap="round" stroke-width="1.5" stroke="#f7931e" fill="transparent" data-name="Path 11668"/><path d="M-1293.614 677.799c-.355.886-.441 1.177-.732 1.921a41.894 41.894 0 0 1-.127.322c3.909 1.745 19.605 7.518 23.166 8.567a.925.925 0 0 0 .235.036h.02a.925.925 0 0 0 .371-.078 1.246 1.246 0 0 0 .52-.6l1.242-2.311a771.437 771.437 0 0 1-12.299-3.91l-.065-.021a787.203 787.203 0 0 0-12.336-3.924" stroke-linejoin="round" stroke-linecap="round" stroke-width="1.5" stroke="#f7931e" fill="transparent" data-name="Path 11669"/><path d="M-1288.271 643.736a11.528 11.528 0 0 1-.654.074c-.323.027-.646.04-.968.04a11.521 11.521 0 0 1-6.823-2.237 4.917 4.917 0 0 1-.427-.378c-1.846-1.838-1.186-4.286-.9-5.441a11.068 11.068 0 0 0 .058-.246 6.668 6.668 0 0 1 5.23-5.136 4.216 4.216 0 0 1 .073-.017c1.565-.356 3.463.141 5.4.671" stroke-linejoin="round" stroke-linecap="round" stroke-width="1.5" stroke="#f7931e" fill="transparent" data-name="Path 11670"/><path d="M-1257.296 658.104a19.289 19.289 0 0 0 9.3 4.181c4.646.876 7.726-4.771 8.585-8.047a8.393 8.393 0 0 0 .205-1.003 9.643 9.643 0 0 0 .134-1.49l.001-.119a9.644 9.644 0 0 0-.281-2.311c-.935-3.276-3.609-4.876-9.315-6.576" stroke-linejoin="round" stroke-linecap="round" stroke-width="1.5" stroke="#f7931e" fill="transparent" data-name="Path 11671"/><path d="M-1255.277 656.069a11.52 11.52 0 0 0 8.053 3.313 4.623 4.623 0 0 0 1.14-.173c2.31-.664 3.084-3.032 3.477-3.93a5.49 5.49 0 0 1 .009-.019 6.66 6.66 0 0 0 .59-2.742 6.667 6.667 0 0 0-1.742-4.497 3.325 3.325 0 0 0-.371-.375c-1.233-1.078-3.684-1.966-5.39-2.627a82.01 82.01 0 0 1-.015-.006" stroke-linejoin="round" stroke-linecap="round" stroke-width="1.5" stroke="#f7931e" fill="transparent" data-name="Path 11672"/><path d="M-1282.712 625.689a149.283 149.283 0 0 1 7.104 2.27c10.639 3.674 21.277 8.426 28.088 11.046" stroke-linejoin="round" stroke-linecap="round" stroke-width="1.5" stroke="#f7931e" fill="transparent" data-name="Path 11673"/><path d="M-1269.673 637.329a12.823 12.823 0 0 1 .476-.016c.638-.009 1.275.03 1.907.116a1.094 1.094 0 0 1 .6.215c.238.315.296.732.153 1.1a57.54 57.54 0 0 1-2.11 6.872l-.04.108a78.708 78.708 0 0 0-1.688 5.144.732.732 0 0 0 .011.6.723.723 0 0 0 .38.236 35.83 35.83 0 0 0 2.991.919.253.253 0 0 1 .225.124.253.253 0 0 1 .035.129.253.253 0 0 1-.034.127l-.55 1.984a113.796 113.796 0 0 1-10.543-3.017.321.321 0 0 1-.25-.165.321.321 0 0 1-.04-.155.32.32 0 0 1 .035-.146l.538-2.445a8.373 8.373 0 0 1 4.227 1.157 32.488 32.488 0 0 1 2.264-6.439 9.616 9.616 0 0 0-2.511 1.441l-2.264-2.712a.6.6 0 0 1-.183-.374.337.337 0 0 1 .054-.17.807.807 0 0 1 .244-.227 2.163 2.163 0 0 1 .046-.029l6.249-4.017m-8.7 13.96v.001" stroke-linejoin="round" stroke-linecap="round" stroke-width="1.5" stroke="#f7931e" fill="transparent" data-name="Path 11674"/><path d="M-1251.65 641.98a62.11 62.11 0 0 1-4.465 9.1 33.726 33.726 0 0 1-.156.259c-1.03 1.692-2.288 3.385-4.153 4.013" stroke-linejoin="round" stroke-linecap="round" stroke-width="1.5" stroke="#f7931e" fill="transparent" data-name="Path 11675"/><path d="M-1263.903 658.218a8.1 8.1 0 0 1-2.582.422 8.1 8.1 0 0 1-1.333-.11" stroke-linejoin="round" stroke-linecap="round" stroke-width="1.5" stroke="#f7931e" fill="transparent" data-name="Path 11676"/><path d="M-1271.228 663.343a.92.92 0 0 1 .254.635.92.92 0 0 1-.002.054.92.92 0 0 1-.332.655 2.664 2.664 0 0 1-1.419.523" stroke-linejoin="round" stroke-linecap="round" stroke-width="1.5" stroke="#f7931e" fill="transparent" data-name="Path 11677"/><path d="M-1277.521 677.803a8.44 8.44 0 0 1-.532-2.949c0-.102.002-.205.006-.308a8.44 8.44 0 0 1 .071-.828 25.221 25.221 0 0 1 .9-4.049" stroke-linejoin="round" stroke-linecap="round" stroke-width="1.5" stroke="#f7931e" fill="transparent" data-name="Path 11678"/></g></svg>