<svg xmlns="http://www.w3.org/2000/svg" width="57.216" height="62.971" viewBox="1745.25 661.237 57.216 62.971"><g data-name="Group 3008"><path d="m1771.69 664.605 6.17-2.582a5.14 5.14 0 0 1 2.517-.7l.076-.001a5.142 5.142 0 0 1 3.05 1l18.963 9.754a543.485 543.485 0 0 1-23.792 50.656 1.907 1.907 0 0 1-1.3 1.393 1.905 1.905 0 0 1-.558.083 1.907 1.907 0 0 1-1.3-.511 3760.579 3760.579 0 0 1-29.485-15.744 1.013 1.013 0 0 1-.75-.741 1.014 1.014 0 0 1-.026-.142 1.011 1.011 0 0 1-.005-.103 1.013 1.013 0 0 1 .346-.762l27.372-43.39" stroke-linejoin="round" stroke-linecap="round" stroke-width="1.5" stroke="#f79521" fill="transparent" data-name="Path 11604"/><path d="M1781.086 661.237a54.37 54.37 0 0 1-3.792 12.935 49.928 49.928 0 0 0-6.36-11.332" stroke-linejoin="round" stroke-linecap="round" stroke-width="1.5" stroke="#f79521" fill="transparent" data-name="Path 11605"/><path d="m1783.98 672.33 7.007 4.457" stroke-linejoin="round" stroke-linecap="round" stroke-width="1.5" stroke="#f79521" fill="transparent" data-name="Path 11606"/><path d="m1772.792 678.515 14.333 8" stroke-linejoin="round" stroke-linecap="round" stroke-width="1.5" stroke="#f79521" fill="transparent" data-name="Path 11607"/><path d="M1782.38 688.818a34 34 0 0 1-8.111-4.221" stroke-linejoin="round" stroke-linecap="round" stroke-width="1.5" stroke="#f79521" fill="transparent" data-name="Path 11608"/><path d="M1764.304 693.14a72.57 72.57 0 0 1 15.85 8.975" stroke-linejoin="round" stroke-linecap="round" stroke-width="1.5" stroke="#f79521" fill="transparent" data-name="Path 11609"/><path d="m1767.377 699.639 8.745 4.25" stroke-linejoin="round" stroke-linecap="round" stroke-width="1.5" stroke="#f79521" fill="transparent" data-name="Path 11610"/><path d="m1765.19 702.8 8.6 4.45" stroke-linejoin="round" stroke-linecap="round" stroke-width="1.5" stroke="#f79521" fill="transparent" data-name="Path 11611"/></g></svg>