<svg xmlns="http://www.w3.org/2000/svg" width="26.734" height="22.663" viewBox="775.209 1546.559 26.734 22.663"><g data-name="quote"><path d="M801.922 1552.856a.73.73 0 0 1-.002-.043v-.031a6.227 6.227 0 0 0-6.219-6.219v-.003a6.338 6.338 0 0 0-.15-.001 6.219 6.219 0 0 0-6.214 6.07 6.338 6.338 0 0 0-.001.151 6.218 6.218 0 0 0 6.07 6.214c1.074 4.3-.313 8.975-.525 9.644a4.3 4.3 0 0 1-.026.081.38.38 0 0 0-.02.12.38.38 0 0 0 .199.335.38.38 0 0 0 .479-.097 38.729 38.729 0 0 0 2.266-3.178c3.718-5.831 4.201-10.376 4.162-12.545a11.639 11.639 0 0 0-.016-.45 4.691 4.691 0 0 0-.002-.022 118.99 118.99 0 0 0-.001-.02m-.761-.1a5.46 5.46 0 0 0-5.46-5.44 5.583 5.583 0 0 0-.014 0 5.46 5.46 0 0 0-5.447 5.468 5.46 5.46 0 0 0 5.46 5.453.38.38 0 0 1 .367.28 13.211 13.211 0 0 1 .235 1.014c.548 2.858.164 5.715-.224 7.525a34.093 34.093 0 0 0 2.228-3.549c2.646-4.877 2.932-8.58 2.87-10.34a10.697 10.697 0 0 0-.01-.224 1.608 1.608 0 0 1-.005-.187Z" fill="#ff723a" fill-rule="evenodd" data-name="Path 6241"/><path d="M787.793 1552.783v.031l.002.044.002.026a4.71 4.71 0 0 1 .001.022 11.64 11.64 0 0 1 .017.45c.046 2.548-.63 8.378-6.429 15.723a.38.38 0 0 1-.318.142.38.38 0 0 1-.16-.046.38.38 0 0 1-.196-.38.38.38 0 0 1 .017-.075 4.299 4.299 0 0 0 .026-.08c.212-.67 1.599-5.344.525-9.645a6.218 6.218 0 0 1-6.071-6.213 6.339 6.339 0 0 1 .002-.15 6.219 6.219 0 0 1 6.214-6.072 6.338 6.338 0 0 1 .15.002v.001a6.227 6.227 0 0 1 6.218 6.22Zm-.757-.021a5.46 5.46 0 0 0-5.475-5.44 5.46 5.46 0 0 0-5.446 5.46 5.808 5.808 0 0 0 0 .008 5.46 5.46 0 0 0 5.46 5.453.38.38 0 0 1 .366.28c.874 3.18.445 6.515.011 8.539 4.754-6.66 5.18-11.788 5.098-13.931a10.697 10.697 0 0 0-.009-.182 1.609 1.609 0 0 1-.005-.187Z" fill="#ff723a" fill-rule="evenodd" data-name="Path 6242"/></g></svg>